<?xml version="1.0" encoding="UTF-8" standalone="no"?>
<svg
   xmlns:dc="http://purl.org/dc/elements/1.1/"
   xmlns:cc="http://creativecommons.org/ns#"
   xmlns:rdf="http://www.w3.org/1999/02/22-rdf-syntax-ns#"
   xmlns:svg="http://www.w3.org/2000/svg"
   xmlns="http://www.w3.org/2000/svg"
   xmlns:sodipodi="http://sodipodi.sourceforge.net/DTD/sodipodi-0.dtd"
   xmlns:inkscape="http://www.inkscape.org/namespaces/inkscape"
   height="67px"
   id="Layer_1"
   style="enable-background:new 0 0 67 67;"
   version="1.1"
   viewBox="0 0 67 67"
   width="67px"
   xml:space="preserve"
   inkscape:version="0.48.4 r9939"
   sodipodi:docname="facebookr.svg"><metadata
     id="metadata9"><rdf:RDF><cc:Work
         rdf:about=""><dc:format>image/svg+xml</dc:format><dc:type
           rdf:resource="http://purl.org/dc/dcmitype/StillImage" /></cc:Work></rdf:RDF></metadata><defs
     id="defs7" /><sodipodi:namedview
     pagecolor="#ffffff"
     bordercolor="#666666"
     borderopacity="1"
     objecttolerance="10"
     gridtolerance="10"
     guidetolerance="10"
     inkscape:pageopacity="0"
     inkscape:pageshadow="2"
     inkscape:window-width="1920"
     inkscape:window-height="1025"
     id="namedview5"
     showgrid="false"
     inkscape:zoom="3.5223881"
     inkscape:cx="-0.70974576"
     inkscape:cy="33.5"
     inkscape:window-x="0"
     inkscape:window-y="30"
     inkscape:window-maximized="1"
     inkscape:current-layer="Layer_1" /><g
     id="g2986"
     transform="matrix(1.0027905,0,0,1.0027905,-0.59487717,-0.59487717)"><path
       id="path3"
       style="fill:#3a589b;fill-rule:evenodd"
       d="M 29.284076,52.173288 H 36.79392 V 33.997773 h 5.009904 l 0.663681,-6.262658 H 36.79392 l 0.0078,-3.135783 c 0,-1.632478 0.155899,-2.508849 2.498827,-2.508849 h 3.131329 v -6.263771 h -5.011017 c -6.018788,0 -8.136778,3.038903 -8.136778,8.147913 v 3.76049 H 25.5325 v 6.263771 h 3.751581 V 52.173288 z M 34,67.40678 C 15.550549,67.40678 0.59322034,52.449451 0.59322034,34 0.59322034,15.549436 15.550549,0.59322034 34,0.59322034 52.449451,0.59322034 67.40678,15.549436 67.40678,34 67.40678,52.449451 52.449451,67.40678 34,67.40678 z"
       inkscape:connector-curvature="0" /></g></svg>