<?xml version="1.0" encoding="UTF-8" standalone="no"?>
<svg
   xmlns:dc="http://purl.org/dc/elements/1.1/"
   xmlns:cc="http://creativecommons.org/ns#"
   xmlns:rdf="http://www.w3.org/1999/02/22-rdf-syntax-ns#"
   xmlns:svg="http://www.w3.org/2000/svg"
   xmlns="http://www.w3.org/2000/svg"
   id="svg1820"
   version="1.1"
   viewBox="0 0 135.46666 135.46667"
   height="512"
   width="512">
  <defs
     id="defs1814" />
  <metadata
     id="metadata1817">
    <rdf:RDF>
      <cc:Work
         rdf:about="">
        <dc:format>image/svg+xml</dc:format>
        <dc:type
           rdf:resource="http://purl.org/dc/dcmitype/StillImage" />
        <dc:title></dc:title>
      </cc:Work>
    </rdf:RDF>
  </metadata>
  <g
     transform="translate(0,-161.53332)"
     id="layer1">
    <g
       transform="matrix(0.26458333,0,0,0.26458333,8.5333333e-7,161.53319)"
       id="g5718"
       style="opacity:0.98000004">
      <g
         id="g5649">
        <polygon
           style="fill:#f2f2f2"
           points="256,253.802 484.973,122.808 452.288,451.017 59.712,451.017 33.379,129.16 "
           id="polygon5645" />
        <polygon
           style="fill:#f2f2f2"
           points="473.886,60.983 256,265.659 38.114,60.983 256,60.983 "
           id="polygon5647" />
      </g>
      <path
         style="fill:#f14336"
         d="M 59.712,155.493 V 451.017 H 24.139 C 10.812,451.017 0,440.206 0,426.878 V 111.967 l 39,1.063 z"
         id="path5651" />
      <path
         style="fill:#d32e2a"
         d="m 512,111.967 v 314.912 c 0,13.327 -10.812,24.139 -24.152,24.139 h -35.56 V 155.493 l 19.692,-46.525 z"
         id="path5653" />
      <path
         style="fill:#f14336"
         d="m 512,85.122 v 26.845 L 452.288,155.493 256,298.561 59.712,155.493 0,111.967 V 85.122 C 0,71.795 10.812,60.983 24.139,60.983 H 38.114 L 256,219.792 473.886,60.983 h 13.962 c 13.34,0 24.152,10.811 24.152,24.139 z"
         id="path5655" />
      <polygon
         style="fill:#d32e2a"
         points="0,111.967 59.712,155.493 0,146.235 "
         id="polygon5657" />
      <g
         id="g5659" />
      <g
         id="g5661" />
      <g
         id="g5663" />
      <g
         id="g5665" />
      <g
         id="g5667" />
      <g
         id="g5669" />
      <g
         id="g5671" />
      <g
         id="g5673" />
      <g
         id="g5675" />
      <g
         id="g5677" />
      <g
         id="g5679" />
      <g
         id="g5681" />
      <g
         id="g5683" />
      <g
         id="g5685" />
      <g
         id="g5687" />
    </g>
  </g>
</svg>
