<?xml version="1.0" encoding="UTF-8" standalone="no"?>
<svg
   xmlns:dc="http://purl.org/dc/elements/1.1/"
   xmlns:cc="http://creativecommons.org/ns#"
   xmlns:rdf="http://www.w3.org/1999/02/22-rdf-syntax-ns#"
   xmlns:svg="http://www.w3.org/2000/svg"
   xmlns="http://www.w3.org/2000/svg"
   id="svg1820"
   version="1.1"
   viewBox="0 0 135.46666 135.46667"
   height="512"
   width="512">
  <defs
     id="defs1814" />
  <metadata
     id="metadata1817">
    <rdf:RDF>
      <cc:Work
         rdf:about="">
        <dc:format>image/svg+xml</dc:format>
        <dc:type
           rdf:resource="http://purl.org/dc/dcmitype/StillImage" />
        <dc:title></dc:title>
      </cc:Work>
    </rdf:RDF>
  </metadata>
  <g
     transform="translate(0,-161.53332)"
     id="layer1">
    <g
       transform="matrix(0.26458333,0,0,0.26458333,8.5333332e-7,161.53332)"
       id="g4281"
       style="opacity:0.98000004">
      <path
         style="fill:#fbbb00"
         d="M 113.47,309.408 95.648,375.94 30.509,377.318 C 11.042,341.211 0,299.9 0,256 0,213.549 10.324,173.517 28.624,138.268 h 0.014 l 57.992,10.632 25.404,57.644 c -5.317,15.501 -8.215,32.141 -8.215,49.456 0.002,18.792 3.406,36.797 9.651,53.408 z"
         id="path4217" />
      <path
         style="fill:#518ef8"
         d="m 507.527,208.176 c 2.94,15.486 4.473,31.479 4.473,47.824 0,18.328 -1.927,36.206 -5.598,53.451 -12.462,58.683 -45.025,109.925 -90.134,146.187 l -0.014,-0.014 -73.044,-3.727 -10.338,-64.535 c 29.932,-17.554 53.324,-45.025 65.646,-77.911 H 261.628 V 208.176 h 138.887 z"
         id="path4219" />
      <path
         style="fill:#28b446"
         d="m 416.253,455.624 0.014,0.014 C 372.396,490.901 316.666,512 256,512 158.509,512 73.748,457.509 30.509,377.319 l 82.961,-67.91 c 21.619,57.698 77.278,98.771 142.53,98.771 28.047,0 54.323,-7.582 76.87,-20.818 z"
         id="path4221" />
      <path
         style="fill:#f14336"
         d="m 419.404,58.936 -82.933,67.896 C 313.136,112.246 285.552,103.82 256,103.82 c -66.729,0 -123.429,42.957 -143.965,102.724 L 28.638,138.268 H 28.624 C 71.23,56.123 157.06,0 256,0 318.115,0 375.068,22.126 419.404,58.936 Z"
         id="path4223" />
      <g
         id="g4225" />
      <g
         id="g4227" />
      <g
         id="g4229" />
      <g
         id="g4231" />
      <g
         id="g4233" />
      <g
         id="g4235" />
      <g
         id="g4237" />
      <g
         id="g4239" />
      <g
         id="g4241" />
      <g
         id="g4243" />
      <g
         id="g4245" />
      <g
         id="g4247" />
      <g
         id="g4249" />
      <g
         id="g4251" />
      <g
         id="g4253" />
    </g>
  </g>
</svg>
