<?xml version="1.0" encoding="UTF-8" standalone="no"?>
<!-- Created with Inkscape (http://www.inkscape.org/) -->

<svg
   xmlns:dc="http://purl.org/dc/elements/1.1/"
   xmlns:cc="http://creativecommons.org/ns#"
   xmlns:rdf="http://www.w3.org/1999/02/22-rdf-syntax-ns#"
   xmlns:svg="http://www.w3.org/2000/svg"
   xmlns="http://www.w3.org/2000/svg"
   xmlns:sodipodi="http://sodipodi.sourceforge.net/DTD/sodipodi-0.dtd"
   xmlns:inkscape="http://www.inkscape.org/namespaces/inkscape"
   width="512"
   height="512"
   viewBox="0 0 135.46666 135.46667"
   version="1.1"
   id="svg1820"
   inkscape:version="0.92.3 (2405546, 2018-03-11)"
   sodipodi:docname="maps.svg">
  <defs
     id="defs1814" />
  <sodipodi:namedview
     id="base"
     pagecolor="#ffffff"
     bordercolor="#666666"
     borderopacity="1.0"
     inkscape:pageopacity="0.0"
     inkscape:pageshadow="2"
     inkscape:zoom="0.96871579"
     inkscape:cx="-101.69309"
     inkscape:cy="186.3881"
     inkscape:document-units="mm"
     inkscape:current-layer="layer1"
     showgrid="false"
     units="px"
     inkscape:window-width="1920"
     inkscape:window-height="1040"
     inkscape:window-x="0"
     inkscape:window-y="0"
     inkscape:window-maximized="1" />
  <metadata
     id="metadata1817">
    <rdf:RDF>
      <cc:Work
         rdf:about="">
        <dc:format>image/svg+xml</dc:format>
        <dc:type
           rdf:resource="http://purl.org/dc/dcmitype/StillImage" />
        <dc:title></dc:title>
      </cc:Work>
    </rdf:RDF>
  </metadata>
  <g
     inkscape:label="Capa 1"
     inkscape:groupmode="layer"
     id="layer1"
     transform="translate(0,-161.53332)">
    <g
       style="opacity:0.98000004"
       id="g4418"
       transform="matrix(0.26458333,0,0,0.26458333,8.5333331e-7,161.53332)">
      <path
         id="path4342"
         d="M 451.809,239.542 V 457.196 L 383.407,444.535 353.251,408.361 226.191,267.107 334.067,190.458 c 54.037,71.326 55.741,53.938 55.741,53.938 0,0 26.692,-39.85 60.936,-5.607 z"
         style="fill:#cccccc"
         inkscape:connector-curvature="0" />
      <path
         id="path4344"
         d="m 190.707,223.105 224.311,288.696 c -1.306,0.128 -2.626,0.199 -3.96,0.199 H 44.336 Z"
         style="fill:#518ef8"
         inkscape:connector-curvature="0" />
      <path
         id="path4346"
         d="M 334.068,190.458 0.447,471.248 V 101.389 c 0,-22.512 18.254,-40.752 40.752,-40.752 h 243.289 c -10.447,17.956 28.289,29.481 28.289,51.752 0,22.414 10.717,60.028 21.291,78.069 z"
         style="fill:#28b446"
         inkscape:connector-curvature="0" />
      <path
         id="path4348"
         d="m 451.809,457.196 v 14.052 c 0,21.164 -16.139,38.566 -36.791,40.553 l -187.705,-185.234 45.436,-46.046 104.867,103.476 5.791,5.72 z"
         style="fill:#f2f2f2"
         inkscape:connector-curvature="0" />
      <path
         id="path4350"
         d="M 322.514,230.088 272.749,280.52 227.313,326.566 44.336,512 H 41.199 C 18.701,512 0.447,493.746 0.447,471.248 L 284.701,183.19 c 5.323,9.113 41.93,-0.114 49.368,7.267 l 13.67,17.572 c 6.671,7.113 -30.959,14.508 -25.225,22.059 z"
         style="fill:#ffd837"
         inkscape:connector-curvature="0" />
      <path
         id="path4352"
         d="m 106.904,227.775 c -35.808,0 -64.939,-29.131 -64.939,-64.939 0,-35.808 29.131,-64.939 64.939,-64.939 17.334,0 33.637,6.758 45.91,19.03 l -15.057,15.054 c -8.248,-8.25 -19.206,-12.793 -30.853,-12.793 -24.068,0 -43.647,19.58 -43.647,43.647 0,24.067 19.58,43.647 43.647,43.647 20.396,0 37.571,-14.062 42.334,-33.002 h -42.334 v -21.291 h 64.939 v 10.646 c -10e-4,35.809 -29.131,64.94 -64.939,64.94 z"
         style="fill:#ffffff"
         inkscape:connector-curvature="0" />
      <path
         id="path4354"
         d="M 284.488,60.638 C 305.566,24.386 344.842,0 389.809,0 c 67.238,0 121.744,54.506 121.744,121.744 0,16.863 -3.435,32.916 -9.624,47.522 -6.203,14.606 -15.174,27.75 -26.245,38.764 -9.226,9.808 -17.501,20.17 -24.939,30.759 -48.729,69.424 -60.936,148.685 -60.936,148.685 0,0 -13.257,-86.06 -67.295,-157.386 -5.734,-7.551 -11.923,-14.947 -18.594,-22.058 h 0.014 c -7.438,-7.381 -13.91,-15.727 -19.233,-24.84 -10.575,-18.041 -16.636,-39.034 -16.636,-61.447 0,-22.27 5.976,-43.15 16.423,-61.105 z"
         style="fill:#f14336"
         inkscape:connector-curvature="0" />
      <path
         id="path4356"
         d="m 389.81,56.947 c 35.781,0 64.781,29.017 64.781,64.798 0,35.781 -29,64.781 -64.781,64.781 -35.781,0 -64.798,-29 -64.798,-64.781 0,-35.781 29.018,-64.798 64.798,-64.798 z"
         style="fill:#7e2d25"
         inkscape:connector-curvature="0" />
      <g
         id="g4358" />
      <g
         id="g4360" />
      <g
         id="g4362" />
      <g
         id="g4364" />
      <g
         id="g4366" />
      <g
         id="g4368" />
      <g
         id="g4370" />
      <g
         id="g4372" />
      <g
         id="g4374" />
      <g
         id="g4376" />
      <g
         id="g4378" />
      <g
         id="g4380" />
      <g
         id="g4382" />
      <g
         id="g4384" />
      <g
         id="g4386" />
    </g>
  </g>
</svg>
