<?xml version="1.0" encoding="UTF-8" standalone="no"?>
<svg
   xmlns:dc="http://purl.org/dc/elements/1.1/"
   xmlns:cc="http://creativecommons.org/ns#"
   xmlns:rdf="http://www.w3.org/1999/02/22-rdf-syntax-ns#"
   xmlns:svg="http://www.w3.org/2000/svg"
   xmlns="http://www.w3.org/2000/svg"
   id="svg1820"
   version="1.1"
   viewBox="0 0 135.46666 135.46667"
   height="512"
   width="512">
  <defs
     id="defs1814" />
  <metadata
     id="metadata1817">
    <rdf:RDF>
      <cc:Work
         rdf:about="">
        <dc:format>image/svg+xml</dc:format>
        <dc:type
           rdf:resource="http://purl.org/dc/dcmitype/StillImage" />
        <dc:title></dc:title>
      </cc:Work>
    </rdf:RDF>
  </metadata>
  <g
     transform="translate(0,-161.53332)"
     id="layer1">
    <g
       transform="matrix(4.2333333,0,0,4.2333333,4.5140677e-7,161.53332)"
       id="g6745"
       style="opacity:0.98000004">
      <path
         style="fill:#0364b8"
         d="M 28.596,2 H 11.404 A 1.404,1.404 0 0 0 10,3.404 V 5 L 19.69,8 30,5 V 3.404 A 1.404,1.404 0 0 0 28.596,2 Z"
         id="path6671" />
      <path
         style="fill:#0a2767"
         d="M 31.65,17.405 A 11.341,11.341 0 0 0 32,16 0.666,0.666 0 0 0 31.667,15.424 L 31.654,15.416 31.65,15.414 20.812,9.24 a 1.499,1.499 0 0 0 -0.145,-0.083 1.5,1.5 0 0 0 -1.334,0 1.49,1.49 0 0 0 -0.145,0.082 L 8.35,15.415 8.346,15.417 8.334,15.424 A 0.666,0.666 0 0 0 8,16 11.344,11.344 0 0 0 8.35,17.405 l 11.492,8.405 z"
         id="path6673" />
      <path
         style="fill:#28a8ea"
         d="m 24,5 h -7 l -2.021,3 2.021,3 7,6 h 6 v -6 z"
         id="path6675" />
      <path
         style="fill:#0078d4"
         d="m 10,5 h 7 v 6 h -7 z"
         id="path6677" />
      <path
         style="fill:#50d9ff"
         d="m 24,5 h 6 v 6 h -6 z"
         id="path6679" />
      <path
         style="fill:#0364b8"
         d="m 24,17 -7,-6 h -7 v 6 l 7,6 10.832,1.768 z"
         id="path6681" />
      <path
         style="fill:none"
         d="M 10.031,5 H 30"
         id="path6683" />
      <path
         style="fill:#0078d4"
         d="m 17,11 h 7 v 6 h -7 z"
         id="path6685" />
      <path
         style="fill:#064a8c"
         d="m 10,17 h 7 v 6 h -7 z"
         id="path6687" />
      <path
         style="fill:#0078d4"
         d="m 24,17 h 6 v 6 h -6 z"
         id="path6689" />
      <path
         style="opacity:0.5;fill:#0a2767"
         d="m 20.19,25.218 -11.793,-8.6 0.495,-0.87 c 0,0 10.745,6.12 10.909,6.212 a 0.528,0.528 0 0 0 0.42,-0.012 l 10.933,-6.23 0.496,0.869 z"
         id="path6691" />
      <path
         style="fill:#1490df"
         d="m 31.667,16.577 -0.014,0.008 -0.003,0.002 -10.838,6.174 a 1.497,1.497 0 0 1 -1.46,0.091 l 3.774,5.061 8.254,1.797 v 0.004 A 1.498,1.498 0 0 0 32,28.5 V 16 a 0.666,0.666 0 0 1 -0.333,0.577 z"
         id="path6693" />
      <path
         style="opacity:0.05"
         d="m 32,28.5 v -0.738 l -9.983,-5.688 -1.205,0.687 a 1.497,1.497 0 0 1 -1.46,0.091 l 3.774,5.061 8.254,1.797 v 0.004 A 1.498,1.498 0 0 0 32,28.5 Z"
         id="path6695" />
      <path
         style="opacity:0.1"
         d="M 31.95,28.883 21.007,22.65 20.812,22.76 a 1.497,1.497 0 0 1 -1.46,0.092 l 3.774,5.061 8.254,1.797 v 0.004 a 1.501,1.501 0 0 0 0.57,-0.83 z"
         id="path6697" />
      <path
         style="fill:#28a8ea"
         d="M 8.35,16.59 V 16.58 H 8.34 L 8.31,16.56 A 0.65,0.65 0 0 1 8,16 V 28.5 A 1.498,1.498 0 0 0 9.5,30 h 21 a 1.503,1.503 0 0 0 0.37,-0.05 0.637,0.637 0 0 0 0.18,-0.06 0.142,0.142 0 0 0 0.06,-0.02 1.048,1.048 0 0 0 0.23,-0.13 c 0.02,-0.01 0.03,-0.01 0.04,-0.03 z"
         id="path6699" />
      <path
         style="opacity:0.1"
         d="M 18,24.667 V 8.333 A 1.337,1.337 0 0 0 16.667,7 H 10.03 v 7.456 L 8.35,15.414 8.345,15.416 8.333,15.423 A 0.666,0.666 0 0 0 8,16 V 16.005 16 26 h 8.667 A 1.337,1.337 0 0 0 18,24.667 Z"
         id="path6701" />
      <path
         style="opacity:0.2"
         d="M 17,25.667 V 9.333 A 1.337,1.337 0 0 0 15.667,8 H 10.03 v 6.456 L 8.35,15.414 8.345,15.416 8.333,15.423 A 0.666,0.666 0 0 0 8,16 V 16.005 16 27 h 7.667 A 1.337,1.337 0 0 0 17,25.667 Z"
         id="path6703" />
      <path
         style="opacity:0.2"
         d="M 17,23.667 V 9.333 A 1.337,1.337 0 0 0 15.667,8 H 10.03 v 6.456 L 8.35,15.414 8.345,15.416 8.333,15.423 A 0.666,0.666 0 0 0 8,16 V 16.005 16 25 h 7.667 A 1.337,1.337 0 0 0 17,23.667 Z"
         id="path6705" />
      <path
         style="opacity:0.2"
         d="M 16,23.667 V 9.333 A 1.337,1.337 0 0 0 14.667,8 H 10.03 v 6.456 L 8.35,15.414 8.345,15.416 8.333,15.423 A 0.666,0.666 0 0 0 8,16 V 16.005 16 25 h 6.667 A 1.337,1.337 0 0 0 16,23.667 Z"
         id="path6707" />
      <path
         style="fill:#0078d4"
         d="M 1.333,8 H 14.667 A 1.333,1.333 0 0 1 16,9.333 V 22.667 A 1.333,1.333 0 0 1 14.667,24 H 1.333 A 1.333,1.333 0 0 1 0,22.667 V 9.333 A 1.333,1.333 0 0 1 1.333,8 Z"
         id="path6709" />
      <path
         style="fill:#ffffff"
         d="M 3.867,13.468 A 4.181,4.181 0 0 1 5.509,11.654 4.965,4.965 0 0 1 8.119,11 a 4.617,4.617 0 0 1 2.413,0.62 4.14,4.14 0 0 1 1.598,1.733 5.597,5.597 0 0 1 0.56,2.55 5.901,5.901 0 0 1 -0.577,2.666 4.239,4.239 0 0 1 -1.645,1.794 A 4.8,4.8 0 0 1 7.963,21 4.729,4.729 0 0 1 5.495,20.373 4.204,4.204 0 0 1 3.877,18.637 5.459,5.459 0 0 1 3.31,16.118 6.055,6.055 0 0 1 3.867,13.468 Z m 1.75,4.258 a 2.716,2.716 0 0 0 0.923,1.194 2.411,2.411 0 0 0 1.443,0.435 2.533,2.533 0 0 0 1.541,-0.449 2.603,2.603 0 0 0 0.897,-1.197 4.626,4.626 0 0 0 0.286,-1.665 5.063,5.063 0 0 0 -0.27,-1.686 2.669,2.669 0 0 0 -0.866,-1.24 2.387,2.387 0 0 0 -1.527,-0.473 2.493,2.493 0 0 0 -1.477,0.439 2.741,2.741 0 0 0 -0.944,1.203 4.776,4.776 0 0 0 -0.007,3.44 z"
         id="path6711" />
      <path
         style="fill:none"
         d="M 0,0 H 32 V 32 H 0 Z"
         id="path6713" />
    </g>
  </g>
</svg>
