<?xml version="1.0" encoding="UTF-8" standalone="no"?>
<svg
   xmlns:dc="http://purl.org/dc/elements/1.1/"
   xmlns:cc="http://creativecommons.org/ns#"
   xmlns:rdf="http://www.w3.org/1999/02/22-rdf-syntax-ns#"
   xmlns:svg="http://www.w3.org/2000/svg"
   xmlns="http://www.w3.org/2000/svg"
   id="svg1820"
   version="1.1"
   viewBox="0 0 135.46666 135.46667"
   height="512"
   width="512">
  <defs
     id="defs1814">
    <linearGradient
       gradientTransform="matrix(6,0,0,-6,4255,3247)"
       y2="511.51199"
       x2="-693.30499"
       y1="534.84497"
       x1="-683.30499"
       gradientUnits="userSpaceOnUse"
       id="path2995-1-0_1_">
      <stop
         id="stop4-7"
         stop-color="#37aee2"
         offset="0" />
      <stop
         id="stop6-3"
         stop-color="#1e96c8"
         offset="1" />
    </linearGradient>
    <linearGradient
       gradientTransform="matrix(1,0,0,-1,0,242)"
       y2="78.245003"
       x2="153.991"
       y1="118.245"
       x1="128.991"
       gradientUnits="userSpaceOnUse"
       id="path2991_1_">
      <stop
         id="stop12-6"
         stop-color="#eff7fc"
         offset="0" />
      <stop
         id="stop14-1"
         stop-color="#fff"
         offset="1" />
    </linearGradient>
  </defs>
  <metadata
     id="metadata1817">
    <rdf:RDF>
      <cc:Work
         rdf:about="">
        <dc:format>image/svg+xml</dc:format>
        <dc:type
           rdf:resource="http://purl.org/dc/dcmitype/StillImage" />
        <dc:title></dc:title>
      </cc:Work>
    </rdf:RDF>
  </metadata>
  <g
     transform="translate(0,-161.53332)"
     id="layer1">
    <g
       id="g846"
       transform="matrix(0.56444444,0,0,0.56444444,5.3333331e-7,161.53332)"
       style="opacity:0.98000004">
      <path
         style="fill:url(#path2995-1-0_1_)"
         id="path2995-1-0"
         class="st0"
         d="M 240,120 C 240,186.3 186.3,240 120,240 53.7,240 0,186.3 0,120 0,53.7 53.7,0 120,0 186.3,0 240,53.7 240,120 Z" />
      <path
         style="fill:#c8daea"
         id="path2993"
         class="st1"
         d="m 98,175 c -3.9,0 -3.2,-1.5 -4.6,-5.2 L 82,132.2 152.8,88 l 8.3,2.2 -6.9,18.8 z" />
      <path
         style="fill:#a9c9dd"
         id="path2989"
         class="st2"
         d="m 98,175 c 3,0 4.3,-1.4 6,-3 2.6,-2.5 36,-35 36,-35 l -20.5,-5 -19,12 -2.5,30 z" />
      <path
         style="fill:url(#path2991_1_)"
         id="path2991"
         class="st3"
         d="m 100,144.4 48.4,35.7 c 5.5,3 9.5,1.5 10.9,-5.1 L 179,82.2 c 2,-8.1 -3.1,-11.7 -8.4,-9.3 L 55,117.5 c -7.9,3.2 -7.8,7.6 -1.4,9.5 L 83.3,136.3 152,93 c 3.2,-2 6.2,-0.9 3.8,1.3 z" />
    </g>
  </g>
</svg>
