<?xml version="1.0" encoding="UTF-8" standalone="no"?>
<!-- Created with Inkscape (http://www.inkscape.org/) -->

<svg
   xmlns:dc="http://purl.org/dc/elements/1.1/"
   xmlns:cc="http://creativecommons.org/ns#"
   xmlns:rdf="http://www.w3.org/1999/02/22-rdf-syntax-ns#"
   xmlns:svg="http://www.w3.org/2000/svg"
   xmlns="http://www.w3.org/2000/svg"
   xmlns:sodipodi="http://sodipodi.sourceforge.net/DTD/sodipodi-0.dtd"
   xmlns:inkscape="http://www.inkscape.org/namespaces/inkscape"
   width="512"
   height="512"
   viewBox="0 0 135.46666 135.46667"
   version="1.1"
   id="svg1820"
   inkscape:version="0.92.3 (2405546, 2018-03-11)"
   sodipodi:docname="wikipedia.svg">
  <defs
     id="defs1814" />
  <sodipodi:namedview
     id="base"
     pagecolor="#ffffff"
     bordercolor="#666666"
     borderopacity="1.0"
     inkscape:pageopacity="0.0"
     inkscape:pageshadow="2"
     inkscape:zoom="1.1826172"
     inkscape:cx="215.68816"
     inkscape:cy="277.00599"
     inkscape:document-units="mm"
     inkscape:current-layer="layer1"
     showgrid="false"
     units="px"
     inkscape:window-width="1920"
     inkscape:window-height="1040"
     inkscape:window-x="0"
     inkscape:window-y="0"
     inkscape:window-maximized="1" />
  <metadata
     id="metadata1817">
    <rdf:RDF>
      <cc:Work
         rdf:about="">
        <dc:format>image/svg+xml</dc:format>
        <dc:type
           rdf:resource="http://purl.org/dc/dcmitype/StillImage" />
        <dc:title></dc:title>
      </cc:Work>
    </rdf:RDF>
  </metadata>
  <g
     inkscape:label="Capa 1"
     inkscape:groupmode="layer"
     id="layer1"
     transform="translate(0,-161.53332)">
    <g
       style="opacity:0.98000004"
       id="g4340"
       transform="matrix(1.5051852,0,0,1.5051852,-6.6666667e-7,161.53212)">
      <g
         id="g4284">
        <path
           d="m 89.938,13.691 c 0,0 -13.965,0 -18.606,0 L 70,13.92 v 1.788 c 0,0.21 0.635,0.386 0.811,0.517 0.168,0.142 0.623,0.219 0.811,0.219 l 1.686,0.084 c 1.912,0.09 2.494,0.505 3.239,1.205 0.731,0.725 0.851,1.955 0.281,3.684 L 60.383,64.346 59.755,64.158 49.309,40.661 c 0.151,-0.353 0.242,-0.551 0.242,-0.551 l 8.553,-17.578 c 0.994,-1.854 1.957,-3.511 2.446,-4.283 0.894,-1.408 1.328,-1.674 3.763,-1.797 0.498,0 0.688,-0.244 0.688,-0.738 v -1.778 l -0.125,-0.191 c 0,0 -10.224,-0.035 -14.879,0 L 50,13.928 v 1.779 c 0,0.217 -0.12,0.39 0.045,0.521 0.176,0.142 0.25,0.215 0.439,0.215 l 0.697,0.089 c 1.902,0.09 2.754,0.636 3.012,0.979 0.455,0.615 0.668,1.271 -0.434,3.911 l -6.585,14.42 -5.951,-13.376 c -1.951,-4.274 -2.434,-5.597 0.508,-5.844 l 0.79,-0.183 c 0.566,0 0.478,-0.224 0.478,-0.649 V 13.92 L 42.94,13.767 c 0,0 -10.9,0 -15.873,0.003 L 27,13.953 v 1.875 c 0,0.421 0.415,0.529 1.185,0.645 2.755,0.396 2.707,0.713 5.429,6.646 0.407,0.889 1.609,3.57 1.609,3.57 l 6.204,13.391 c 0,0 0.704,1.72 1.805,4.39 l -9.016,19.763 -0.515,-0.146 c 0,0 -13.991,-32.418 -18.037,-43.266 -0.426,-1.117 -0.611,-1.953 -0.611,-2.468 0,-1.102 0.904,-1.699 2.712,-1.779 l 2.751,-0.099 C 21.079,16.475 22,16.239 22,15.748 V 13.97 l -0.829,-0.184 c 0,0 -17.14,-0.021 -20.602,0 L 0,13.97 v 1.872 c 0,0.336 0.448,0.545 1.227,0.634 2.129,0.129 3.559,0.499 4.229,1.123 0.668,0.628 1.393,2.215 2.333,4.688 5.087,13.424 15.902,37.38 21.166,51.026 1.513,3.723 3.424,4.303 5.733,-0.117 2.379,-4.848 7.178,-15.608 10.679,-23.552 3.275,7.924 7.734,18.645 9.885,23.501 1.712,3.887 3.665,4.271 5.646,0.116 5.183,-12.654 20.319,-50.736 20.319,-50.736 0.654,-1.869 1.568,-3.309 2.746,-4.355 1.169,-1.033 2.909,-1.617 5.349,-1.731 0.494,0 0.688,-0.249 0.688,-0.731 V 13.92 Z"
           id="Wikipedia-3"
           inkscape:connector-curvature="0" />
      </g>
      <g
         id="g4286" />
      <g
         id="g4288" />
      <g
         id="g4290" />
      <g
         id="g4292" />
      <g
         id="g4294" />
      <g
         id="g4296" />
      <g
         id="g4298" />
      <g
         id="g4300" />
      <g
         id="g4302" />
      <g
         id="g4304" />
      <g
         id="g4306" />
      <g
         id="g4308" />
      <g
         id="g4310" />
      <g
         id="g4312" />
      <g
         id="g4314" />
    </g>
  </g>
</svg>
